<svg xmlns="http://www.w3.org/2000/svg" width="595.67" height="87.96" viewBox="0 0 595.67 87.96"><path d="M150.67,61.24C145.23,79.32,130.67,88,115.79,88,96.27,88,76.27,73.08,76.27,45c0-29.28,20.8-44,40.16-44,17,0,33.6,11.36,33.6,35.68a51.64,51.64,0,0,1-.64,8.32h-53c1.92,16.64,13.28,23.68,25.12,23.68,9,0,18.24-4.64,24.64-14.24ZM127.79,33.4c1.76-15.52-5.12-22.08-13-22.08s-17,6.08-18.4,22.08Z"/><path d="M196.75,86.36c-2.72,1.12-7.52,1.6-11,1.6-16.32,0-24.64-10.88-24.64-23.36,0-13.28,9.6-21.44,24.32-25.28l23.2-6.08v-9.6c0-8.48-5.76-12.32-11.68-12.32-7,0-14.56,5.76-14.56,16.48a16.55,16.55,0,0,0,.16,2.72H172l-7.36-18.88C174.35,5.08,188.27.92,201.07.92,217.87.92,232,8.12,232,27V64.28c0,5.44,2.56,7.68,5.92,7.68a6.6,6.6,0,0,0,5.6-2.88l2.88,8.16A18,18,0,0,1,229.71,88c-7.52,0-16.16-4.32-16.32-16.8Zm11.84-44.64L196.27,45.4c-9.28,2.72-14.08,8.8-14.08,14.88,0,5.28,3.68,10.4,11.52,10.4a19.3,19.3,0,0,0,14.88-7Z"/><path d="M255.63,57.24h10.24a21.2,21.2,0,0,0,20.8,21c6.24,0,11-4.16,11-10.4,0-8.16-9.28-10.88-19.2-14.56-11.68-4.32-24.16-9.6-24.16-25.92C254.31,9,270,1,286.63,1c9.6,0,20,2.56,27.68,7.2l-3.8,17.08H301c-1.6-10.08-8.16-14.08-14.56-14.08-5.12,0-10.4,3.2-10.4,9.76,0,7.84,7.52,10.88,16.48,13.92,12.32,4.16,27.2,8.48,27.2,25.92C319.67,79,303.35,88,284.79,88c-10.88,0-22.56-2.72-31.2-7.68Z"/><path d="M414.83,44c0,24.64-16,44-43.36,44C344,88,329.23,68.28,329.23,44.6c0-24.48,15.84-43.68,43.36-43.68C400,.92,414.83,20.12,414.83,44Zm-27.2,2.88c0-22.56-5.6-37.28-16.64-37.28-9.76,0-14.56,11.52-14.56,32.32,0,22.56,5.6,37.44,16.64,37.44C382.83,79.32,387.63,67.64,387.63,46.84Z"/><path d="M422,78.52l12.32-4.64V19l-12-5.6V8.12L455.47.92V19.16L473.71,2.52a35.94,35.94,0,0,1,10.4-1.6C496.91.92,510,8.6,510,29.08V75.8l12.32,2.08V86H475.79V77.72L486,73.88V34.52C486,23.64,481,19,474.83,19c-5.28,0-11.36,3.2-16.48,8.48V75.8l10.24,1.76V86H422Z"/><path d="M531.63,57.24h10.24a21.2,21.2,0,0,0,20.8,21c6.24,0,11-4.16,11-10.4,0-8.16-9.28-10.88-19.2-14.56-11.68-4.32-24.16-9.6-24.16-25.92C530.31,9,546,1,562.63,1c9.6,0,20,2.56,27.68,7.2l-3.8,17.08H577c-1.6-10.08-8.16-14.08-14.56-14.08-5.12,0-10.4,3.2-10.4,9.76,0,7.84,7.52,10.88,16.48,13.92,12.32,4.16,27.2,8.48,27.2,25.92C595.67,79,579.35,88,560.79,88c-10.88,0-22.56-2.72-31.2-7.68Z"/><path d="M0,79.3l12.59-4.74V18.48L.33,12.75V7.36L34.17,0V21.42L53.79.82c5.89,0,13.73,1.31,18.48,3.92L65.89,29.1a25.1,25.1,0,0,0-13.73-4.25,25.47,25.47,0,0,0-15,4.91V76.52L49.7,78.64V87H0Z"/></svg>